valid_reformated

The embedding sizes for train and test: torch.Size([196688, 128]) torch.Size([26966, 128])
Calculating eval distance map, between 26966 test ids and 5661 train EC cluster centers
############ EC calling results using maximum separation ############
---------------------------------------------------------------------------
>>> total samples: 26966 | total ec: 3489 
>>> precision: 0.92 | recall: 0.872| F1: 0.879 | AUC: 0.936 
---------------------------------------------------------------------------

test1_reformated

The embedding sizes for train and test: torch.Size([196688, 128]) torch.Size([24617, 128])
Calculating eval distance map, between 24617 test ids and 5661 train EC cluster centers
############ EC calling results using maximum separation ############
---------------------------------------------------------------------------
>>> total samples: 24617 | total ec: 4252 
>>> precision: 0.901 | recall: 0.854| F1: 0.86 | AUC: 0.927 
---------------------------------------------------------------------------

test2_reformated

The embedding sizes for train and test: torch.Size([196688, 128]) torch.Size([2104, 128])
Calculating eval distance map, between 2104 test ids and 5661 train EC cluster centers
############ EC calling results using maximum separation ############
---------------------------------------------------------------------------
>>> total samples: 2104 | total ec: 2351 
>>> precision: 0.645 | recall: 0.637| F1: 0.615 | AUC: 0.818 
---------------------------------------------------------------------------

